<svg width="35" height="17" viewBox="0 0 35 17" fill="none" xmlns="http://www.w3.org/2000/svg">
<path d="M3.264 13.12C2.904 13.12 2.56 13.048 2.232 12.904C1.904 12.76 1.616 12.556 1.368 12.292C1.128 12.028 0.936 11.72 0.792 11.368C0.656 11.008 0.588 10.616 0.588 10.192C0.588 9.776 0.656 9.392 0.792 9.04C0.936 8.688 1.128 8.384 1.368 8.128C1.616 7.864 1.904 7.66 2.232 7.516C2.56 7.372 2.904 7.3 3.264 7.3C3.656 7.3 4.008 7.372 4.32 7.516C4.64 7.66 4.912 7.864 5.136 8.128C5.368 8.384 5.544 8.692 5.664 9.052C5.784 9.404 5.844 9.788 5.844 10.204C5.852 10.628 5.792 11.016 5.664 11.368C5.544 11.72 5.372 12.028 5.148 12.292C4.924 12.556 4.652 12.76 4.332 12.904C4.02 13.048 3.664 13.12 3.264 13.12ZM3.42 12.1C3.756 12.1 4.056 12.02 4.32 11.86C4.592 11.7 4.804 11.48 4.956 11.2C5.116 10.912 5.196 10.584 5.196 10.216C5.196 9.84 5.116 9.512 4.956 9.232C4.804 8.944 4.592 8.72 4.32 8.56C4.056 8.4 3.756 8.32 3.42 8.32C3.084 8.32 2.78 8.4 2.508 8.56C2.236 8.72 2.02 8.944 1.86 9.232C1.708 9.512 1.632 9.84 1.632 10.216C1.632 10.584 1.708 10.912 1.86 11.2C2.02 11.48 2.236 11.7 2.508 11.86C2.788 12.02 3.092 12.1 3.42 12.1ZM5.772 13.12C5.596 13.12 5.468 13.088 5.388 13.024C5.308 12.96 5.26 12.852 5.244 12.7V5.188C5.244 5.068 5.252 4.968 5.268 4.888C5.292 4.808 5.34 4.748 5.412 4.708C5.492 4.66 5.608 4.636 5.76 4.636C5.912 4.636 6.024 4.66 6.096 4.708C6.176 4.748 6.228 4.808 6.252 4.888C6.276 4.968 6.288 5.064 6.288 5.176V12.568C6.288 12.68 6.276 12.78 6.252 12.868C6.228 12.948 6.18 13.008 6.108 13.048C6.036 13.096 5.924 13.12 5.772 13.12ZM10.7513 13.12C10.3593 13.12 10.0033 13.048 9.68325 12.904C9.36325 12.76 9.09125 12.556 8.86725 12.292C8.64325 12.028 8.46725 11.72 8.33925 11.368C8.21925 11.016 8.16325 10.628 8.17125 10.204C8.17125 9.788 8.23125 9.404 8.35125 9.052C8.47125 8.692 8.64325 8.384 8.86725 8.128C9.09925 7.864 9.37125 7.66 9.68325 7.516C10.0033 7.372 10.3593 7.3 10.7513 7.3C11.1193 7.3 11.4633 7.372 11.7833 7.516C12.1113 7.66 12.3953 7.864 12.6353 8.128C12.8833 8.384 13.0753 8.688 13.2113 9.04C13.3553 9.392 13.4273 9.776 13.4273 10.192C13.4273 10.616 13.3553 11.008 13.2113 11.368C13.0753 11.72 12.8833 12.028 12.6353 12.292C12.3953 12.556 12.1113 12.76 11.7833 12.904C11.4633 13.048 11.1193 13.12 10.7513 13.12ZM10.5953 12.1C10.9313 12.1 11.2353 12.02 11.5073 11.86C11.7793 11.7 11.9913 11.48 12.1433 11.2C12.3033 10.912 12.3833 10.584 12.3833 10.216C12.3833 9.84 12.3033 9.512 12.1433 9.232C11.9913 8.944 11.7793 8.72 11.5073 8.56C11.2433 8.4 10.9393 8.32 10.5953 8.32C10.2593 8.32 9.95525 8.4 9.68325 8.56C9.41925 8.72 9.20725 8.944 9.04725 9.232C8.89525 9.512 8.81925 9.84 8.81925 10.216C8.81925 10.584 8.89525 10.912 9.04725 11.2C9.20725 11.48 9.41925 11.7 9.68325 11.86C9.95525 12.02 10.2593 12.1 10.5953 12.1ZM8.25525 13.132C8.10325 13.132 7.98725 13.108 7.90725 13.06C7.83525 13.02 7.78725 12.96 7.76325 12.88C7.73925 12.792 7.72725 12.696 7.72725 12.592V5.188C7.72725 5.068 7.73925 4.968 7.76325 4.888C7.78725 4.808 7.83525 4.748 7.90725 4.708C7.98725 4.66 8.10325 4.636 8.25525 4.636C8.40725 4.636 8.51925 4.66 8.59125 4.708C8.66325 4.756 8.71125 4.82 8.73525 4.9C8.75925 4.98 8.77125 5.076 8.77125 5.188V12.7C8.75525 12.852 8.70725 12.96 8.62725 13.024C8.55525 13.096 8.43125 13.132 8.25525 13.132ZM19.5398 13.108C19.3638 13.108 19.2358 13.072 19.1558 13C19.0838 12.928 19.0398 12.816 19.0238 12.664L19.0718 12.064C18.9918 12.192 18.8678 12.34 18.6998 12.508C18.5318 12.668 18.3118 12.812 18.0398 12.94C17.7678 13.06 17.4358 13.12 17.0438 13.12C16.6598 13.12 16.2998 13.044 15.9638 12.892C15.6358 12.74 15.3438 12.528 15.0878 12.256C14.8398 11.984 14.6438 11.672 14.4998 11.32C14.3638 10.968 14.2958 10.592 14.2958 10.192C14.2958 9.8 14.3638 9.432 14.4998 9.088C14.6438 8.736 14.8438 8.428 15.0998 8.164C15.3558 7.9 15.6478 7.692 15.9758 7.54C16.3118 7.388 16.6678 7.312 17.0438 7.312C17.3958 7.312 17.6958 7.36 17.9438 7.456C18.1918 7.544 18.4038 7.664 18.5798 7.816C18.7638 7.96 18.9238 8.124 19.0598 8.308L19.0358 7.804C19.0278 7.628 19.0638 7.504 19.1438 7.432C19.2318 7.352 19.3678 7.312 19.5518 7.312C19.7038 7.312 19.8118 7.336 19.8758 7.384C19.9478 7.432 19.9958 7.5 20.0198 7.588C20.0438 7.676 20.0558 7.784 20.0558 7.912V12.544C20.0558 12.656 20.0438 12.756 20.0198 12.844C19.9958 12.932 19.9478 12.996 19.8758 13.036C19.8038 13.084 19.6918 13.108 19.5398 13.108ZM17.2238 12.112C17.5438 12.112 17.8358 12.028 18.0998 11.86C18.3718 11.692 18.5838 11.468 18.7358 11.188C18.8958 10.9 18.9758 10.572 18.9758 10.204C18.9758 9.828 18.8918 9.5 18.7238 9.22C18.5638 8.932 18.3478 8.708 18.0758 8.548C17.8118 8.38 17.5198 8.296 17.1998 8.296C16.8238 8.296 16.4958 8.384 16.2158 8.56C15.9438 8.728 15.7278 8.956 15.5678 9.244C15.4078 9.532 15.3278 9.86 15.3278 10.228C15.3278 10.588 15.4078 10.912 15.5678 11.2C15.7278 11.48 15.9478 11.704 16.2278 11.872C16.5158 12.032 16.8478 12.112 17.2238 12.112ZM22.0745 13.12C21.9225 13.12 21.8065 13.096 21.7265 13.048C21.6545 13.008 21.6065 12.948 21.5825 12.868C21.5585 12.788 21.5465 12.692 21.5465 12.58V7.84C21.5465 7.728 21.5585 7.632 21.5825 7.552C21.6065 7.472 21.6545 7.412 21.7265 7.372C21.8065 7.332 21.9265 7.312 22.0865 7.312C22.2385 7.312 22.3505 7.336 22.4225 7.384C22.4945 7.424 22.5425 7.484 22.5665 7.564C22.5905 7.644 22.6025 7.744 22.6025 7.864V12.592C22.6025 12.704 22.5905 12.8 22.5665 12.88C22.5425 12.96 22.4905 13.02 22.4105 13.06C22.3385 13.1 22.2265 13.12 22.0745 13.12ZM22.0745 5.872C21.8985 5.872 21.7665 5.848 21.6785 5.8C21.5905 5.744 21.5305 5.668 21.4985 5.572C21.4745 5.476 21.4625 5.364 21.4625 5.236C21.4625 5.108 21.4785 5 21.5105 4.912C21.5425 4.816 21.6025 4.748 21.6905 4.708C21.7785 4.66 21.9105 4.636 22.0865 4.636C22.2545 4.636 22.3825 4.66 22.4705 4.708C22.5585 4.756 22.6145 4.828 22.6385 4.924C22.6705 5.02 22.6865 5.132 22.6865 5.26C22.6865 5.388 22.6705 5.5 22.6385 5.596C22.6145 5.684 22.5585 5.752 22.4705 5.8C22.3825 5.848 22.2505 5.872 22.0745 5.872ZM30.7918 13.12C30.6398 13.12 30.5238 13.096 30.4438 13.048C30.3718 13.008 30.3238 12.948 30.2998 12.868C30.2838 12.78 30.2758 12.68 30.2758 12.568V7.84C30.2758 7.72 30.2878 7.62 30.3118 7.54C30.3358 7.46 30.3838 7.404 30.4558 7.372C30.5278 7.332 30.6438 7.312 30.8038 7.312C30.9478 7.312 31.0558 7.332 31.1278 7.372C31.2078 7.404 31.2598 7.456 31.2838 7.528C31.3158 7.592 31.3318 7.668 31.3318 7.756L31.2838 8.116C31.3398 8.012 31.4038 7.908 31.4758 7.804C31.5558 7.7 31.6518 7.608 31.7638 7.528C31.8838 7.44 32.0238 7.368 32.1838 7.312C32.3518 7.256 32.5558 7.228 32.7958 7.228C32.9158 7.228 33.0278 7.24 33.1318 7.264C33.2438 7.28 33.3478 7.308 33.4438 7.348C33.5478 7.388 33.6358 7.436 33.7078 7.492C33.7798 7.54 33.8358 7.596 33.8758 7.66C33.9238 7.716 33.9478 7.784 33.9478 7.864C33.9478 8.04 33.8918 8.192 33.7798 8.32C33.6678 8.44 33.5518 8.5 33.4318 8.5C33.3278 8.5 33.2518 8.488 33.2038 8.464C33.1558 8.432 33.1078 8.4 33.0598 8.368C33.0198 8.336 32.9598 8.308 32.8798 8.284C32.7998 8.252 32.6718 8.236 32.4958 8.236C32.3758 8.236 32.2478 8.26 32.1118 8.308C31.9838 8.356 31.8598 8.428 31.7398 8.524C31.6198 8.612 31.5198 8.728 31.4398 8.872C31.3678 9.016 31.3318 9.184 31.3318 9.376V12.592C31.3318 12.704 31.3198 12.8 31.2958 12.88C31.2718 12.96 31.2198 13.02 31.1398 13.06C31.0678 13.1 30.9518 13.12 30.7918 13.12Z" fill="white"/>
<path fill-rule="evenodd" clip-rule="evenodd" d="M28.7043 1.38837C29.0495 1.6682 29.1248 2.15986 28.8693 2.46615C28.779 2.5745 28.5083 2.73702 28.4118 2.7409C28.3692 2.74262 28.347 2.77255 28.3235 2.86011L28.2922 2.97702L28.8147 3.09638C29.5078 3.25472 30.0285 3.35343 30.6619 3.44661C30.9494 3.48891 31.2132 3.53922 31.248 3.55841C31.2829 3.57763 31.3306 3.6285 31.3539 3.67144C31.3952 3.74758 31.3874 3.78296 31.0369 5.09075L30.6775 6.43199L30.5914 6.52919C30.4664 6.59986 30.4115 6.55715 30.0213 6.3895C29.6083 6.21198 29.579 6.20009 29.1445 6.03305C28.9265 5.94921 28.5045 5.80606 28.2068 5.71491L27.6655 5.54918L27.5465 5.99327L27.4275 6.43736L27.5218 6.54217C27.8008 6.85208 27.7897 7.31308 27.4968 7.57801C27.4315 7.63704 27.3408 7.69731 27.2952 7.71191C27.2167 7.73701 27.2057 7.75833 27.0954 8.09724C26.6435 9.4861 26.2634 10.2897 25.2908 11.9127C24.8562 12.6379 24.7389 12.8604 24.6377 13.1512C24.3555 13.9622 24.8019 14.7863 25.6461 15.0125C26.3037 15.1887 27.0167 14.8931 27.4168 14.2785C27.5549 14.0663 27.7367 13.6718 27.7008 13.6622C27.6932 13.6601 27.6029 13.671 27.5002 13.6863C27.2889 13.7177 26.9796 13.7131 26.8401 13.6764L26.7466 13.6518L27.0042 13.3759C27.4131 12.9379 27.8272 12.2918 28.106 11.6566C28.1752 11.4992 28.241 11.3652 28.2524 11.3589C28.289 11.3387 28.5039 11.7689 28.6003 12.0555C28.7271 12.4327 28.7695 12.7024 28.7673 13.1202C28.764 13.7761 28.5931 14.3265 28.2357 14.8325C27.724 15.5569 26.8127 16.0445 25.9587 16.0507C25.771 16.052 25.6316 16.0316 25.3894 15.967C25.0199 15.8685 24.8552 15.7865 24.5488 15.5485C23.6712 14.8669 23.3513 13.7976 23.7154 12.7634C23.8489 12.3845 24.0197 12.0561 24.5183 11.2208C25.2406 10.0105 25.4262 9.65388 25.8133 8.73243C25.9075 8.50812 26.0433 8.14032 26.1149 7.91505L26.2452 7.50552L26.1703 7.37187C26.0208 7.10552 26.0218 6.86709 26.1735 6.61952C26.2619 6.47523 26.4186 6.35902 26.6578 6.26038C26.7065 6.24032 26.7373 6.20735 26.7341 6.17869C26.7312 6.15228 26.7756 5.95588 26.8328 5.74229L26.9369 5.35395L26.3855 5.2257C25.788 5.08667 25.2026 4.98626 24.5796 4.91588C24.0694 4.85823 24.0195 4.87243 23.9449 4.74589L23.9161 4.62026L24.2729 3.28839L24.6298 1.95653C24.6298 1.95653 24.6638 1.88801 24.719 1.85681C24.7742 1.82562 24.8471 1.81709 24.8471 1.81709L25.2672 1.98293C25.8469 2.21182 26.5918 2.4743 27.1829 2.658L27.6803 2.81259L27.7096 2.70098C27.7363 2.59965 27.7284 2.5778 27.6246 2.46373C27.41 2.22811 27.3793 1.84458 27.5542 1.58241C27.8049 1.20648 28.3636 1.11221 28.7043 1.38837Z" fill="#EC2733"/>
</svg>
