<svg width="9" height="16" viewBox="0 0 9 16" fill="none" xmlns="http://www.w3.org/2000/svg">
<path fill-rule="evenodd" clip-rule="evenodd" d="M5.52626 1.03869C5.87147 1.31851 5.94674 1.81017 5.69127 2.11646C5.60092 2.22482 5.33029 2.38733 5.23379 2.39121C5.19112 2.39293 5.16895 2.42286 5.14549 2.51042L5.11417 2.62733L5.63664 2.74669C6.32977 2.90504 6.85044 3.00374 7.48391 3.09693C7.77139 3.13922 8.03513 3.18953 8.07001 3.20872C8.1049 3.22794 8.15252 3.27881 8.17585 3.32176C8.2172 3.3979 8.20931 3.43328 7.85889 4.74106L7.49951 6.08231L7.41339 6.17951C7.28832 6.25017 7.23341 6.20747 6.8433 6.03981C6.43022 5.86229 6.40095 5.8504 5.96647 5.68337C5.74842 5.59952 5.32643 5.45638 5.02871 5.36523L4.48743 5.1995L4.36844 5.64359L4.24944 6.08768L4.34378 6.19248C4.6228 6.5024 4.61167 6.9634 4.31877 7.22832C4.25351 7.28736 4.16274 7.34762 4.11712 7.36223C4.03871 7.38733 4.02765 7.40865 3.91738 7.74755C3.46543 9.13641 3.08537 9.93998 2.11277 11.563C1.67818 12.2882 1.56087 12.5107 1.45968 12.8015C1.17746 13.6125 1.6239 14.4366 2.46807 14.6628C3.12565 14.839 3.8387 14.5434 4.23878 13.9288C4.37688 13.7167 4.55869 13.3221 4.52278 13.3125C4.51514 13.3105 4.42487 13.3213 4.32216 13.3366C4.11085 13.368 3.80154 13.3634 3.66209 13.3267L3.56854 13.3021L3.82614 13.0262C4.23504 12.5883 4.64918 11.9421 4.92801 11.3069C4.99712 11.1495 5.06298 11.0155 5.07434 11.0092C5.11097 10.989 5.32584 11.4192 5.42224 11.7058C5.5491 12.0831 5.59143 12.3527 5.58931 12.7705C5.58598 13.4264 5.41511 13.9768 5.05765 14.4828C4.54593 15.2072 3.63462 15.6948 2.78069 15.701C2.59294 15.7023 2.45361 15.6819 2.21139 15.6173C1.84183 15.5188 1.67719 15.4368 1.37079 15.1989C0.49319 14.5173 0.173221 13.4479 0.537386 12.4138C0.670821 12.0348 0.84171 11.7064 1.34022 10.8711C2.06258 9.66081 2.24819 9.30419 2.63525 8.38275C2.72949 8.15844 2.86522 7.79064 2.93689 7.56537L3.06721 7.15583L2.99222 7.02218C2.84271 6.75583 2.84375 6.5174 2.99546 6.26983C3.08388 6.12555 3.24056 6.00933 3.47978 5.91069C3.52848 5.89063 3.55924 5.85767 3.55605 5.82901C3.55313 5.80259 3.59754 5.6062 3.65477 5.39261L3.75882 5.00427L3.2075 4.87601C2.60993 4.73698 2.02453 4.63657 1.40159 4.5662C0.891329 4.50854 0.84148 4.52275 0.766838 4.39621L0.738027 4.27058L1.0949 2.93871L1.45177 1.60684C1.45177 1.60684 1.48575 1.53832 1.54096 1.50713C1.59618 1.47593 1.66906 1.46741 1.66906 1.46741L2.08911 1.63325C2.66885 1.86214 3.41374 2.12461 4.00484 2.30832L4.50225 2.46291L4.5316 2.35129C4.55825 2.24997 4.55039 2.22812 4.44654 2.11405C4.23195 1.87842 4.20131 1.49489 4.37613 1.23273C4.62683 0.856795 5.18555 0.762524 5.52626 1.03869Z" fill="#EC2733"/>
</svg>
